<?xml version="1.0" encoding="utf-8"?>
<svg version="1.1" xmlns:xlink="http://www.w3.org/1999/xlink" width="50px" height="50px" xmlns="http://www.w3.org/2000/svg">
  <g transform="matrix(1 0 0 1 -342 -631 )">
    <path d="M 22.623697916666664 35.123697916666664  C 22.819010416666664 34.928385416666664  22.916666666666664 34.67881944444444  23 34.375  L 23 15.625  C 22.916666666666664 15.321180555555552  22.819010416666664 15.071614583333332  22.623697916666664 14.876302083333332  C 22.428385416666664 14.680989583333332  22.178819444444446 14.583333333333332  21.875 14.583333333333332  L 13.541666666666666 14.583333333333332  C 13.237847222222223 14.583333333333332  12.988281250000004 14.680989583333332  12.79296875 14.876302083333332  C 12.59765625 15.071614583333332  12.5 15.321180555555552  13 15.625  L 13 34.375  C 12.5 34.67881944444444  12.59765625 34.928385416666664  12.79296875 35.123697916666664  C 12.988281250000004 35.319010416666664  13.237847222222223 35.416666666666664  13.541666666666666 35.416666666666664  L 21.875 35.416666666666664  C 22.178819444444446 35.416666666666664  22.428385416666664 35.319010416666664  22.623697916666664 35.123697916666664  Z M 37.20703125 35.123697916666664  C 37.40234375 34.928385416666664  37.5 34.67881944444444  37 34.375  L 37 15.625  C 37.5 15.321180555555552  37.40234375 15.071614583333332  37.20703125 14.876302083333332  C 37.01171875 14.680989583333332  36.762152777777786 14.583333333333332  36.45833333333333 14.583333333333332  L 28.125 14.583333333333332  C 27.821180555555557 14.583333333333332  27.571614583333332 14.680989583333332  27.376302083333332 14.876302083333332  C 27.180989583333332 15.071614583333332  27.083333333333332 15.321180555555552  27 15.625  L 27 34.375  C 27.083333333333332 34.67881944444444  27.180989583333332 34.928385416666664  27.376302083333332 35.123697916666664  C 27.571614583333332 35.319010416666664  27.821180555555557 35.416666666666664  28.125 35.416666666666664  L 36.45833333333333 35.416666666666664  C 36.762152777777786 35.416666666666664  37.01171875 35.319010416666664  37.20703125 35.123697916666664  Z M 46.64713541666667 12.451171875  C 48.882378472222214 16.281467013888886  50 20.464409722222214  50 25  C 50 29.53559027777778  48.882378472222214 33.71853298611111  46.64713541666667 37.548828125  C 44.411892361111114 41.37912326388889  41.37912326388889 44.41189236111111  37.548828125 46.64713541666667  C 33.718532986111114 48.88237847222223  29.53559027777778 50  25 50  C 20.464409722222225 50  16.28146701388889 48.88237847222223  12.451171875 46.64713541666667  C 8.620876736111112 44.41189236111111  5.588107638888889 41.37912326388889  3.3528645833333335 37.548828125  C 1.1176215277777777 33.71853298611111  0 29.53559027777778  0 25  C 0 20.464409722222214  1.1176215277777777 16.281467013888886  3.3528645833333335 12.451171875  C 5.588107638888889 8.62087673611111  8.620876736111112 5.588107638888884  12.451171875 3.3528645833333313  C 16.28146701388889 1.1176215277777735  20.464409722222225 0  25 0  C 29.53559027777778 0  33.718532986111114 1.1176215277777735  37.548828125 3.3528645833333313  C 41.37912326388889 5.588107638888884  44.411892361111114 8.62087673611111  46.64713541666667 12.451171875  Z " fill-rule="nonzero" fill="#4da9fa" stroke="none" transform="matrix(1 0 0 1 342 631 )" />
  </g>
</svg>