<?xml version="1.0" encoding="utf-8"?>
<svg version="1.1" xmlns:xlink="http://www.w3.org/1999/xlink" width="50px" height="50px" xmlns="http://www.w3.org/2000/svg">
  <g transform="matrix(1 0 0 1 -342 -631 )">
    <path d="M 12.451171875 3.3528645833333313  C 16.28146701388889 1.1176215277777735  20.464409722222225 0  25 0  C 29.53559027777778 0  33.718532986111114 1.1176215277777735  37.548828125 3.3528645833333313  C 41.37912326388889 5.588107638888884  44.411892361111114 8.62087673611111  46.64713541666667 12.451171875  C 48.882378472222214 16.281467013888886  50 20.464409722222214  50 25  C 50 29.53559027777778  48.882378472222214 33.71853298611111  46.64713541666667 37.548828125  C 44.411892361111114 41.37912326388889  41.37912326388889 44.41189236111111  37.548828125 46.64713541666667  C 33.718532986111114 48.88237847222223  29.53559027777778 50  25 50  C 20.464409722222225 50  16.28146701388889 48.88237847222223  12.451171875 46.64713541666667  C 8.620876736111112 44.41189236111111  5.588107638888889 41.37912326388889  3.3528645833333335 37.548828125  C 1.1176215277777777 33.71853298611111  0 29.53559027777778  0 25  C 0 20.464409722222214  1.1176215277777777 16.281467013888886  3.3528645833333335 12.451171875  C 5.588107638888889 8.62087673611111  8.620876736111112 5.588107638888884  12.451171875 3.3528645833333313  Z M 19.791666666666664 37.20703125  L 37.5 26.790364583333336  C 38.19444444444445 26.399739583333336  38.54166666666667 25.802951388888886  38.54166666666667 25  C 38.54166666666667 24.19704861111111  38.19444444444445 23.600260416666668  37.5 23.209635416666668  L 19.791666666666664 12.79296875  C 19.118923611111114 12.38064236111111  18.424479166666664 12.369791666666668  17.708333333333336 12.760416666666668  C 17.013888888888893 13.172743055555552  16.666666666666664 13.780381944444443  17 14.583333333333332  L 17 35.416666666666664  C 16.666666666666664 36.21961805555555  17.013888888888893 36.82725694444444  17.708333333333336 37.239583333333336  C 18.055555555555557 37.41319444444444  18.40277777777778 37.5  18.75 37.5  C 19.118923611111114 37.5  19.466145833333336 37.40234375  19.791666666666664 37.20703125  Z " fill-rule="nonzero" fill="#4da9fa" stroke="none" fill-opacity="0.996078431372549" transform="matrix(1 0 0 1 342 631 )" />
  </g>
</svg>