<?xml version="1.0" encoding="utf-8"?>
<svg version="1.1" xmlns:xlink="http://www.w3.org/1999/xlink" width="50px" height="50px" xmlns="http://www.w3.org/2000/svg">
  <g transform="matrix(1 0 0 1 -286 -631 )">
    <path d="M 35.12369791666667 35.123697916666664  C 35.31901041666667 34.928385416666664  35.41666666666667 34.67881944444444  35 34.375  L 35 15.625  C 35.41666666666667 15.321180555555552  35.31901041666667 15.071614583333332  35.12369791666667 14.876302083333332  C 34.92838541666667 14.680989583333332  34.67881944444445 14.583333333333332  34.375 15  L 15.625 15  C 15.321180555555555 14.583333333333332  15.071614583333334 14.680989583333332  14.876302083333334 14.876302083333332  C 14.680989583333334 15.071614583333332  14.583333333333334 15.321180555555552  15 15.625  L 15 34.375  C 14.583333333333334 34.67881944444444  14.680989583333334 34.928385416666664  14.876302083333334 35.123697916666664  C 15.071614583333334 35.319010416666664  15.321180555555555 35.416666666666664  15.625 35  L 34.375 35  C 34.67881944444445 35.416666666666664  34.92838541666667 35.319010416666664  35.12369791666667 35.123697916666664  Z M 46.64713541666667 12.451171875  C 48.882378472222214 16.281467013888886  50 20.464409722222214  50 25  C 50 29.53559027777778  48.882378472222214 33.71853298611111  46.64713541666667 37.548828125  C 44.411892361111114 41.37912326388889  41.37912326388889 44.41189236111111  37.548828125 46.64713541666667  C 33.718532986111114 48.88237847222223  29.53559027777778 50  25 50  C 20.464409722222225 50  16.28146701388889 48.88237847222223  12.451171875 46.64713541666667  C 8.620876736111112 44.41189236111111  5.588107638888889 41.37912326388889  3.3528645833333335 37.548828125  C 1.1176215277777777 33.71853298611111  0 29.53559027777778  0 25  C 0 20.464409722222214  1.1176215277777777 16.281467013888886  3.3528645833333335 12.451171875  C 5.588107638888889 8.62087673611111  8.620876736111112 5.588107638888884  12.451171875 3.3528645833333313  C 16.28146701388889 1.1176215277777735  20.464409722222225 0  25 0  C 29.53559027777778 0  33.718532986111114 1.1176215277777735  37.548828125 3.3528645833333313  C 41.37912326388889 5.588107638888884  44.411892361111114 8.62087673611111  46.64713541666667 12.451171875  Z " fill-rule="nonzero" fill="#4da9fa" stroke="none" transform="matrix(1 0 0 1 286 631 )" />
  </g>
</svg>