<?xml version="1.0" encoding="utf-8"?>
<svg version="1.1" xmlns:xlink="http://www.w3.org/1999/xlink" width="21px" height="21px" xmlns="http://www.w3.org/2000/svg">
  <g transform="matrix(1 0 0 1 -262 -6 )">
    <path d="M 20.505050505050505 15.696969696969695  C 20.835016835016837 16.026936026936024  21 16.427609427609426  21 16.8989898989899  C 21 17.370370370370374  20.835016835016837 17.771043771043768  20.505050505050505 18.1010101010101  L 18.1010101010101 20.505050505050505  C 17.771043771043775 20.835016835016837  17.37037037037037 21  16.8989898989899 21  C 16.42760942760943 21  16.026936026936028 20.835016835016837  15.696969696969697 20.505050505050505  L 10.5 15.30808080808081  L 5.303030303030304 20.505050505050505  C 4.973063973063974 20.835016835016837  4.572390572390573 21  4.101010101010101 21  C 3.62962962962963 21  3.2289562289562292 20.835016835016837  2.8989898989898992 20.505050505050505  L 0.494949494949495 18.1010101010101  C 0.16498316498316515 17.771043771043768  0 17.370370370370374  0 16.8989898989899  C 0 16.427609427609426  0.16498316498316515 16.026936026936024  0.494949494949495 15.696969696969695  L 5.691919191919192 10.5  L 0.494949494949495 5.303030303030302  C 0.16498316498316515 4.973063973063971  0 4.572390572390573  0 4.101010101010101  C 0 3.6296296296296293  0.16498316498316515 3.2289562289562257  0.494949494949495 2.8989898989898997  L 2.8989898989898992 0.49494949494949503  C 3.2289562289562292 0.16498316498316423  3.62962962962963 0  4.101010101010101 0  C 4.572390572390573 0  4.973063973063974 0.16498316498316423  5.303030303030304 0.49494949494949503  L 10.5 5.691919191919193  L 15.696969696969697 0.49494949494949503  C 16.026936026936028 0.16498316498316423  16.42760942760943 0  16.8989898989899 0  C 17.37037037037037 0  17.771043771043775 0.16498316498316423  18.1010101010101 0.49494949494949503  L 20.505050505050505 2.8989898989898997  C 20.835016835016837 3.2289562289562257  21 3.6296296296296293  21 4.101010101010101  C 21 4.572390572390573  20.835016835016837 4.973063973063971  20.505050505050505 5.303030303030302  L 15.308080808080808 10.5  L 20.505050505050505 15.696969696969695  Z " fill-rule="nonzero" fill="#333333" stroke="none" transform="matrix(1 0 0 1 262 6 )" />
  </g>
</svg>