<?xml version="1.0" encoding="utf-8"?>
<svg version="1.1" xmlns:xlink="http://www.w3.org/1999/xlink" width="48px" height="48px" xmlns="http://www.w3.org/2000/svg">
  <g transform="matrix(1 0 0 1 -342 -108 )">
    <path d="M 366 108  C 379.44 108  390 118.56  390 132  C 390 145.44  379.44 156  366 156  C 352.56 156  342 145.44  342 132  C 342 118.56  352.56 108  366 108  Z " fill-rule="nonzero" fill="#ffffff" stroke="none" />
    <path d="M 366 108.5  C 379.16 108.5  389.5 118.84  389.5 132  C 389.5 145.16  379.16 155.5  366 155.5  C 352.84 155.5  342.5 145.16  342.5 132  C 342.5 118.84  352.84 108.5  366 108.5  Z " stroke-width="1" stroke="#f2f2f2" fill="none" />
  </g>
</svg>