<?xml version="1.0" encoding="utf-8"?>
<svg version="1.1" xmlns:xlink="http://www.w3.org/1999/xlink" width="40px" height="40px" xmlns="http://www.w3.org/2000/svg">
  <g transform="matrix(1 0 0 1 -312 -19 )">
    <path d="M 38.411458333333336 12.239583333333336  C 39.47048611111111 14.70486111111111  40 17.291666666666664  40 20  C 40 22.70833333333333  39.47048611111111 25.295138888888886  38.411458333333336 27.76041666666667  C 37.35243055555556 30.225694444444446  35.92881944444444 32.35243055555556  34.140625 34.140625  C 32.35243055555556 35.92881944444444  30.225694444444446 37.35243055555556  27.760416666666664 38.411458333333336  C 25.295138888888893 39.470486111111114  22.708333333333336 40  20 40  C 17.01388888888889 40  14.175347222222223 39.37065972222222  11.484375 38.111979166666664  C 8.793402777777779 36.853298611111114  6.501736111111112 35.078125  4.609375 32.786458333333336  C 4.487847222222222 32.61284722222222  4.431423611111112 32.41753472222222  4.440104166666667 32.200520833333336  C 4.448784722222222 31.983506944444446  4.522569444444445 31.805555555555554  4.661458333333333 31.666666666666664  L 8.229166666666666 28.07291666666667  C 8.402777777777779 27.91666666666667  8.619791666666666 27.83854166666667  8.880208333333334 27.83854166666667  C 9.15798611111111 27.873263888888886  9.35763888888889 27.977430555555554  9.479166666666666 28.15104166666667  C 10.746527777777779 29.80034722222222  12.300347222222223 31.07638888888889  14.140625 31.979166666666664  C 15.980902777777779 32.88194444444444  17.93402777777778 33.333333333333336  20 33.333333333333336  C 21.805555555555557 33.333333333333336  23.528645833333336 32.981770833333336  25.169270833333336 32.278645833333336  C 26.809895833333336 31.575520833333336  28.229166666666664 30.625  29.427083333333336 29.42708333333333  C 30.625 28.22916666666667  31.575520833333336 26.80989583333333  32.278645833333336 25.16927083333333  C 32.981770833333336 23.52864583333333  33.333333333333336 21.805555555555554  33.333333333333336 20  C 33.333333333333336 18.194444444444443  32.981770833333336 16.471354166666664  32.278645833333336 14.830729166666664  C 31.575520833333336 13.190104166666664  30.625 11.770833333333336  29.427083333333336 10.572916666666664  C 28.229166666666664 9.375  26.809895833333336 8.424479166666664  25.169270833333336 7.721354166666665  C 23.528645833333336 7.018229166666665  21.805555555555557 6.666666666666665  20 6.666666666666665  C 18.298611111111114 6.666666666666665  16.666666666666668 6.974826388888888  15.104166666666668 7.591145833333335  C 13.541666666666668 8.207465277777771  12.152777777777779 9.088541666666664  10.9375 10.234375  L 14.505208333333332 13.828125  C 15.043402777777779 14.348958333333336  15.164930555555555 14.947916666666664  14.869791666666668 15.625  C 14.574652777777779 16.319444444444446  14.0625 16.666666666666664  13.333333333333332 17  L 1.6666666666666665 17  C 1.215277777777778 16.666666666666664  0.8246527777777778 16.50173611111111  0.49479166666666663 16.171875  C 0.16493055555555555 15.84201388888889  0 15.45138888888889  0 15  L 0 3.333333333333335  C 0 2.604166666666665  0.34722222222222215 2.0920138888888884  1.0416666666666667 1.796875  C 1.71875 1.5017361111111072  2.3177083333333335 1.6232638888888884  2.838541666666667 2.161458333333335  L 6.223958333333334 5.520833333333335  C 8.081597222222223 3.767361111111107  10.203993055555555 2.408854166666665  12.591145833333332 1.4453125  C 14.978298611111114 0.4817708333333348  17.447916666666668 0  20 0  C 22.708333333333336 0  25.295138888888893 0.5295138888888884  27.760416666666664 1.5885416666666652  C 30.225694444444446 2.647569444444442  32.35243055555556 4.071180555555554  34.140625 5.859375  C 35.92881944444444 7.647569444444442  37.35243055555556 9.774305555555554  38.411458333333336 12.239583333333336  Z M 23.098958333333336 11.901041666666664  C 23.255208333333336 12.057291666666664  23.333333333333336 12.256944444444443  23 12.5  L 23 24.16666666666667  C 23.333333333333336 24.40972222222222  23.255208333333336 24.609375  23.098958333333336 24.765625  C 22.942708333333336 24.921875  22.743055555555557 25  22.5 25  L 14.166666666666668 25  C 13.923611111111114 25  13.723958333333332 24.921875  13.567708333333332 24.765625  C 13.411458333333332 24.609375  13.333333333333332 24.40972222222222  13.333333333333332 24.16666666666667  L 13.333333333333332 22.5  C 13.333333333333332 22.256944444444446  13.411458333333332 22.05729166666667  13.567708333333332 21.90104166666667  C 13.723958333333332 21.74479166666667  13.923611111111114 21.66666666666667  14.166666666666668 21.66666666666667  L 20 21.66666666666667  L 20 12.5  C 20 12.256944444444443  20.078125 12.057291666666664  20.234375 11.901041666666664  C 20.390625000000004 11.744791666666664  20.590277777777782 11.666666666666664  20.833333333333336 11.666666666666664  L 22.5 11.666666666666664  C 22.743055555555557 11.666666666666664  22.942708333333336 11.744791666666664  23.098958333333336 11.901041666666664  Z " fill-rule="nonzero" fill="#000000" stroke="none" transform="matrix(1 0 0 1 312 19 )" />
  </g>
</svg>