<?xml version="1.0" encoding="utf-8"?>
<svg version="1.1" xmlns:xlink="http://www.w3.org/1999/xlink" width="60px" height="60px" xmlns="http://www.w3.org/2000/svg">
  <defs>
    <filter x="357px" y="8px" width="60px" height="60px" filterUnits="userSpaceOnUse" id="filter4">
      <feOffset dx="0" dy="0" in="SourceAlpha" result="shadowOffsetInner" />
      <feGaussianBlur stdDeviation="5" in="shadowOffsetInner" result="shadowGaussian" />
      <feComposite in2="shadowGaussian" operator="atop" in="SourceAlpha" result="shadowComposite" />
      <feColorMatrix type="matrix" values="0 0 0 0 0  0 0 0 0 0  0 0 0 0 0  0 0 0 0.3137254901960784 0  " in="shadowComposite" />
    </filter>
    <g id="widget5">
      <path d="M 11.09375 0.08928571428571619  C 11.197916666666668 0.029761904761906877  11.309523809523812 0  11.428571428571427 0  C 11.622023809523812 0  11.789434523809526 0.0706845238095255  11.930803571428573 0.21205357142857206  C 12.07217261904762 0.3534226190476186  12.142857142857142 0.5208333333333304  12.142857142857142 0.7142857142857162  L 12.142857142857142 33.57142857142857  C 12.142857142857142 33.86904761904762  12.01636904761905 34.077380952380956  11.763392857142858 34.19642857142857  L 1.0491071428571428 39.910714285714285  C 0.9449404761904763 39.970238095238095  0.8333333333333335 40  0.7142857142857142 40  C 0.5208333333333334 40  0.35342261904761907 39.929315476190474  0.21205357142857145 39.78794642857143  C 0.07068452380952381 39.64657738095238  0 39.47916666666667  0 39.285714285714285  L 0 6.428571428571428  C 0 6.130952380952377  0.12648809523809523 5.922619047619047  0.3794642857142857 5.803571428571428  L 11.09375 0.08928571428571619  Z M 38.950892857142854 0.08928571428571619  C 39.05505952380953 0.029761904761906877  39.16666666666667 0  39.285714285714285 0  C 39.47916666666667 0  39.64657738095239 0.0706845238095255  39.78794642857143 0.21205357142857206  C 39.92931547619048 0.3534226190476186  40 0.5208333333333304  40 0.7142857142857162  L 40 33.57142857142857  C 40 33.86904761904762  39.873511904761905 34.077380952380956  39.620535714285715 34.19642857142857  L 28.90625 39.910714285714285  C 28.802083333333336 39.970238095238095  28.690476190476197 40  28.571428571428573 40  C 28.377976190476197 40  28.210565476190478 39.929315476190474  28.069196428571427 39.78794642857143  C 27.92782738095238 39.64657738095238  27.857142857142854 39.47916666666667  27.857142857142854 39.285714285714285  L 27.857142857142854 6.428571428571428  C 27.857142857142854 6.130952380952377  27.983630952380953 5.922619047619047  28.236607142857146 5.803571428571428  L 38.950892857142854 0.08928571428571619  Z M 13.783482142857142 0.21205357142857206  C 13.92485119047619 0.0706845238095255  14.092261904761905 0  14.285714285714286 0  C 14.404761904761905 0  14.508928571428573 0.022321428571427937  14.598214285714286 0.06696428571428381  L 26.026785714285715 5.78125  C 26.294642857142854 5.930059523809521  26.428571428571427 6.14583333333333  26 6.428571428571428  L 26 39.285714285714285  C 26.428571428571427 39.47916666666667  26.357886904761905 39.64657738095238  26.216517857142854 39.78794642857143  C 26.07514880952381 39.929315476190474  25.9077380952381 40  25.714285714285715 40  C 25.5952380952381 40  25.491071428571427 39.97767857142857  25.401785714285715 39.933035714285715  L 13.973214285714286 34.21875  C 13.705357142857142 34.069940476190474  13.571428571428573 33.85416666666667  14 33.57142857142857  L 14 0.7142857142857162  C 13.571428571428573 0.5208333333333304  13.642113095238098 0.3534226190476186  13.783482142857142 0.21205357142857206  Z " fill-rule="nonzero" fill="#000000" stroke="none" transform="matrix(1 0 0 1 367 18 )" />
    </g>
  </defs>
  <g transform="matrix(1 0 0 1 -357 -8 )">
    <use xlink:href="#widget5" filter="url(#filter4)" />
    <use xlink:href="#widget5" />
  </g>
</svg>