<?xml version="1.0" encoding="utf-8"?>
<svg version="1.1" xmlns:xlink="http://www.w3.org/1999/xlink" width="35px" height="29px" xmlns="http://www.w3.org/2000/svg">
  <g transform="matrix(1 0 0 1 -90 -169 )">
    <path d="M 14.241071428571429 26.519140625  C 14.226190476190476 26.602213541666668  14.241071428571429 26.70416666666667  14.285714285714286 26.825000000000003  C 14.285714285714286 26.885416666666668  14.293154761904763 27.036458333333332  14.308035714285714 27.278125000000003  C 14.322916666666668 27.519791666666666  14.326636904761905 27.719921874999997  14.319196428571429 27.878515625  C 14.311755952380954 28.037109375  14.289434523809526 28.214583333333334  14.252232142857142 28.410937500000003  C 14.215029761904763 28.60729166666667  14.140625 28.754557291666668  14.029017857142858 28.852734374999997  C 13.917410714285715 28.950911458333334  13.764880952380954 29  13.571428571428571 29  L 6.428571428571429 29  C 4.657738095238096 29  3.1436011904761907 28.36184895833333  1.8861607142857144 27.085546875  C 0.628720238095238 25.809244791666668  0 24.27239583333333  0 22.475  L 0 6.5249999999999995  C 0 4.727604166666662  0.628720238095238 3.190755208333332  1.8861607142857144 1.9144531250000005  C 3.1436011904761907 0.6381510416666626  4.657738095238096 0  6.428571428571429 0  L 13.571428571428571 0  C 13.764880952380954 0  13.932291666666668 0.07174479166666259  14.073660714285714 0.21523437500000064  C 14.215029761904763 0.35872395833333226  14.285714285714286 0.5286458333333323  14.285714285714286 0.7250000000000006  C 14.285714285714286 0.7854166666666639  14.293154761904763 0.9364583333333316  14.308035714285714 1.1781250000000005  C 14.322916666666668 1.4197916666666632  14.326636904761905 1.6199218750000013  14.319196428571429 1.7785156249999987  C 14.311755952380954 1.9371093749999995  14.289434523809526 2.114583333333332  14.252232142857142 2.3109375000000005  C 14.215029761904763 2.5072916666666627  14.140625 2.6545572916666638  14.029017857142858 2.752734375000001  C 13.917410714285715 2.850911458333332  13.764880952380954 2.8999999999999995  13.571428571428571 2.8999999999999995  L 6.428571428571429 2.8999999999999995  C 5.446428571428572 2.8999999999999995  4.605654761904763 3.254947916666662  3.90625 3.96484375  C 3.2068452380952386 4.674739583333332  2.8571428571428568 5.528125000000001  3 6.5249999999999995  L 3 22.475  C 2.8571428571428568 23.471874999999997  3.2068452380952386 24.325260416666662  3.90625 25.03515625  C 4.605654761904763 25.74505208333333  5.446428571428572 26.1  6.428571428571429 26.1  L 12.857142857142858 26.1  L 13.102678571428571 26.1  L 13.392857142857142 26.1  C 13.392857142857142 26.1  13.47842261904762 26.10755208333333  13.649553571428571 26.12265625  C 13.820684523809526 26.13776041666667  13.90625 26.160416666666666  13.90625 26.190624999999997  C 13.90625 26.22083333333333  13.96577380952381 26.262369791666668  14.084821428571427 26.315234375000003  C 14.20386904761905 26.36809895833333  14.255952380952381 26.43606770833333  14.241071428571429 26.519140625  Z M 34.575892857142854 13.48046875  C 34.858630952380956 13.767447916666667  35 14.107291666666667  35 14.5  C 35 14.89270833333333  34.858630952380956 15.23255208333333  34.575892857142854 15.51953125  L 22.433035714285715 27.844531250000003  C 22.15029761904762 28.131510416666668  21.815476190476193 28.275  21.42857142857143 28.275  C 21.04166666666667 28.275  20.70684523809524 28.131510416666668  20.424107142857142 27.844531250000003  C 20.14136904761905 27.55755208333333  20 27.21770833333333  20 26.825000000000003  L 20 20  L 10 20  C 9.613095238095237 20.299999999999997  9.27827380952381 20.156510416666666  8.995535714285715 19.86953125  C 8.712797619047619 19.58255208333333  8.571428571428571 19.24270833333333  8.571428571428571 18.85  L 8.571428571428571 10.149999999999999  C 8.571428571428571 9.757291666666662  8.712797619047619 9.417447916666662  8.995535714285715 9.130468749999999  C 9.27827380952381 8.843489583333334  9.613095238095237 8.700000000000001  10 9  L 20 9  L 20 2.174999999999999  C 20 1.782291666666662  20.14136904761905 1.442447916666662  20.424107142857142 1.1554687499999987  C 20.70684523809524 0.8684895833333323  21.04166666666667 0.7250000000000006  21.42857142857143 0.7250000000000006  C 21.815476190476193 0.7250000000000006  22.15029761904762 0.8684895833333323  22.433035714285715 1.1554687499999987  L 34.575892857142854 13.48046875  Z " fill-rule="nonzero" fill="#333333" stroke="none" transform="matrix(1 0 0 1 90 169 )" />
  </g>
</svg>