<?xml version="1.0" encoding="utf-8"?>
<svg version="1.1" xmlns:xlink="http://www.w3.org/1999/xlink" width="40px" height="40px" xmlns="http://www.w3.org/2000/svg">
  <g transform="matrix(1 0 0 1 -306 -93 )">
    <path d="M 24.713541666666664 24.71354166666667  C 26.015625 23.41145833333333  26.666666666666664 21.84027777777778  26.666666666666664 20  C 26.666666666666664 18.159722222222218  26.015625 16.588541666666664  24.713541666666664 15.286458333333336  C 23.411458333333336 13.984375  21.840277777777782 13.333333333333336  20 13.333333333333336  C 18.15972222222222 13.333333333333336  16.588541666666668 13.984375  15.286458333333332 15.286458333333336  C 13.984375 16.588541666666664  13.333333333333332 18.159722222222218  13.333333333333332 20  C 13.333333333333332 21.84027777777778  13.984375 23.41145833333333  15.286458333333332 24.71354166666667  C 16.588541666666668 26.015625  18.15972222222222 26.66666666666667  20 26.66666666666667  C 21.840277777777782 26.66666666666667  23.411458333333336 26.015625  24.713541666666664 24.71354166666667  Z M 39.791666666666664 16.549479166666664  C 39.93055555555556 16.731770833333336  40 16.93576388888889  40 17.161458333333336  L 40 22.94270833333333  C 40 23.15104166666667  39.93055555555556 23.350694444444446  39.791666666666664 23.54166666666667  C 39.65277777777778 23.732638888888886  39.479166666666664 23.845486111111107  39.270833333333336 23.88020833333333  L 34.453125 24.609375  C 34.12326388888889 25.546875  33.78472222222223 26.336805555555554  33.4375 26.97916666666667  C 34.04513888888889 27.84722222222222  34.973958333333336 29.045138888888886  36.223958333333336 30.572916666666664  C 36.39756944444444 30.78125  36.484375 30.99826388888889  36.484375 31.223958333333336  C 36.484375 31.449652777777782  36.40625 31.649305555555554  36.25 31.822916666666664  C 35.78125 32.46527777777778  34.921875 33.40277777777778  33.671875 34.635416666666664  C 32.421875 35.86805555555556  31.605902777777782 36.484375  31.223958333333336 36.484375  C 31.015625 36.484375  30.789930555555557 36.40625  30.546875 36.25  L 26.953125 33.4375  C 26.18923611111111 33.83680555555556  25.399305555555557 34.166666666666664  24.583333333333336 34.427083333333336  C 24.305555555555557 36.78819444444444  24.053819444444446 38.40277777777778  23.828125 39.270833333333336  C 23.70659722222222 39.75694444444444  23.39409722222222 40  22.890625 40  L 17.109375 40  C 16.866319444444446 40  16.653645833333332 39.92621527777778  16.471354166666668 39.778645833333336  C 16.2890625 39.631076388888886  16.189236111111114 39.44444444444444  16.171875 39.21875  L 15.442708333333332 34.427083333333336  C 14.592013888888891 34.14930555555556  13.810763888888891 33.828125  13.098958333333332 33.463541666666664  L 9.427083333333334 36.25  C 9.253472222222223 36.40625  9.036458333333334 36.484375  8.776041666666666 36.484375  C 8.53298611111111 36.484375  8.315972222222223 36.388888888888886  8.125 36.197916666666664  C 5.9375 34.21875  4.505208333333333 32.760416666666664  3.828125 31.822916666666664  C 3.7065972222222228 31.649305555555554  3.645833333333333 31.449652777777782  3.645833333333333 31.223958333333336  C 3.645833333333333 31.015625  3.7152777777777786 30.815972222222218  3.854166666666667 30.625  C 4.114583333333333 30.260416666666664  4.557291666666667 29.68315972222222  5.182291666666666 28.89322916666667  C 5.807291666666666 28.103298611111107  6.276041666666666 27.491319444444436  6.588541666666666 27.05729166666667  C 6.119791666666666 26.189236111111107  5.763888888888889 25.329861111111107  5.520833333333334 24.47916666666667  L 0.7552083333333333 23.77604166666667  C 0.529513888888889 23.741319444444446  0.3472222222222222 23.6328125  0.20833333333333331 23.45052083333333  C 0.06944444444444445 23.26822916666667  0 23.064236111111107  0 22.83854166666667  L 0 17.057291666666664  C 0 16.848958333333336  0.06944444444444445 16.649305555555554  0.20833333333333331 16.458333333333336  C 0.3472222222222222 16.26736111111111  0.5121527777777778 16.15451388888889  0.703125 16.119791666666664  L 5.546875 15.390625  C 5.789930555555555 14.59201388888889  6.128472222222222 13.793402777777777  6.5625 12.994791666666664  C 5.868055555555555 12.005208333333336  4.939236111111112 10.807291666666664  3.776041666666667 9.401041666666664  C 3.602430555555556 9.192708333333336  3.515625 8.984375  3.515625 8.776041666666664  C 3.515625 8.602430555555554  3.59375 8.402777777777771  3.75 8.177083333333336  C 4.201388888888889 7.552083333333335  5.056423611111112 6.618923611111107  6.315104166666666 5.377604166666665  C 7.573784722222223 4.136284722222219  8.394097222222223 3.515625  8.776041666666666 3.515625  C 9.00173611111111 3.515625  9.227430555555557 3.6024305555555536  9.453125 3.776041666666665  L 13.046875 6.5625  C 13.810763888888891 6.163194444444442  14.600694444444446 5.833333333333335  15.416666666666668 5.572916666666665  C 15.694444444444446 3.2118055555555536  15.946180555555555 1.5972222222222188  16.171875 0.7291666666666652  C 16.29340277777778 0.24305555555555358  16.60590277777778 0  17.109375 0  L 22.890625 0  C 23.133680555555557 0  23.346354166666664 0.07378472222221877  23.528645833333336 0.2213541666666652  C 23.7109375 0.36892361111110716  23.81076388888889 0.5555555555555536  23.828125 0.78125  L 24.557291666666664 5.572916666666665  C 25.40798611111111 5.850694444444442  26.18923611111111 6.171875  26.901041666666664 6.536458333333335  L 30.598958333333336 3.75  C 30.755208333333336 3.59375  30.963541666666664 3.515625  31.223958333333336 3.515625  C 31.449652777777782 3.515625  31.666666666666664 3.6024305555555536  31.875 3.776041666666665  C 34.114583333333336 5.842013888888888  35.546875 7.317708333333335  36.171875 8.203125  C 36.29340277777778 8.34201388888889  36.354166666666664 8.532986111111107  36.354166666666664 8.776041666666664  C 36.354166666666664 8.984375  36.28472222222223 9.184027777777771  36.145833333333336 9.375  C 35.885416666666664 9.739583333333336  35.442708333333336 10.316840277777771  34.817708333333336 11.106770833333336  C 34.192708333333336 11.89670138888889  33.723958333333336 12.508680555555554  33.411458333333336 12.942708333333336  C 33.86284722222223 13.81076388888889  34.21875 14.66145833333333  34.479166666666664 15.494791666666664  L 39.244791666666664 16.223958333333336  C 39.470486111111114 16.258680555555554  39.65277777777778 16.367187499999996  39.791666666666664 16.549479166666664  Z " fill-rule="nonzero" fill="#555555" stroke="none" transform="matrix(1 0 0 1 306 93 )" />
  </g>
</svg>