<?xml version="1.0" encoding="utf-8"?>
<svg version="1.1" xmlns:xlink="http://www.w3.org/1999/xlink" width="40px" height="40px" xmlns="http://www.w3.org/2000/svg">
  <g transform="matrix(1 0 0 1 -367 -93 )">
    <path d="M 25.989583333333336 25.57291666666667  C 27.586805555555557 24.079861111111107  29.479166666666664 23.33333333333333  31.666666666666664 23.33333333333333  C 33.97569444444444 23.33333333333333  35.94184027777778 24.14496527777778  37.565104166666664 25.76822916666667  C 39.18836805555556 27.391493055555554  40 29.357638888888886  40 31.666666666666664  C 40 33.97569444444444  39.18836805555556 35.94184027777778  37.565104166666664 37.565104166666664  C 35.94184027777778 39.18836805555556  33.97569444444444 40  31.666666666666664 40  C 29.357638888888893 40  27.391493055555557 39.18836805555556  25.768229166666664 37.565104166666664  C 24.144965277777782 35.94184027777778  23.333333333333336 33.97569444444444  23.333333333333336 31.666666666666664  C 23.333333333333336 31.458333333333336  23.350694444444446 31.163194444444443  23.385416666666664 30.78125  L 14.010416666666668 26.09375  C 12.413194444444445 27.586805555555554  10.520833333333332 28.33333333333333  8.333333333333334 28.33333333333333  C 6.024305555555555 28.33333333333333  4.058159722222222 27.521701388888886  2.4348958333333335 25.8984375  C 0.8116319444444443 24.275173611111107  0 22.30902777777778  0 20  C 0 17.690972222222218  0.8116319444444443 15.72482638888889  2.4348958333333335 14.1015625  C 4.058159722222222 12.478298611111107  6.024305555555555 11.666666666666664  8.333333333333334 11.666666666666664  C 10.520833333333332 11.666666666666664  12.413194444444445 12.413194444444443  14.010416666666668 13.90625  L 23.385416666666664 9.21875  C 23.350694444444446 8.836805555555554  23.333333333333336 8.541666666666664  23.333333333333336 8.333333333333336  C 23.333333333333336 6.024305555555554  24.144965277777782 4.058159722222219  25.768229166666664 2.434895833333335  C 27.391493055555557 0.811631944444442  29.357638888888893 0  31.666666666666664 0  C 33.97569444444444 0  35.94184027777778 0.811631944444442  37.565104166666664 2.434895833333335  C 39.18836805555556 4.058159722222219  40 6.024305555555554  40 8.333333333333336  C 40 10.642361111111107  39.18836805555556 12.608506944444443  37.565104166666664 14.231770833333336  C 35.94184027777778 15.855034722222223  33.97569444444444 16.666666666666664  31.666666666666664 16.666666666666664  C 29.479166666666664 16.666666666666664  27.586805555555557 15.92013888888889  25.989583333333336 14.427083333333336  L 16.614583333333332 19.114583333333336  C 16.649305555555557 19.49652777777778  16.666666666666668 19.791666666666664  16.666666666666668 20  C 16.666666666666668 20.20833333333333  16.649305555555557 20.50347222222222  16.614583333333332 20.88541666666667  L 25.989583333333336 25.57291666666667  Z " fill-rule="nonzero" fill="#555555" stroke="none" transform="matrix(1 0 0 1 367 93 )" />
  </g>
</svg>