<?xml version="1.0" encoding="utf-8"?>
<svg version="1.1" xmlns:xlink="http://www.w3.org/1999/xlink" width="40px" height="40px" xmlns="http://www.w3.org/2000/svg">
  <g transform="matrix(1 0 0 1 -422 -88 )">
    <path d="M 26.432291666666664 33.098958333333336  C 26.588541666666664 32.942708333333336  26.666666666666664 32.74305555555556  26.666666666666664 32.5  L 26.666666666666664 28.33333333333333  C 26.666666666666664 28.09027777777778  26.588541666666664 27.890625  26.432291666666664 27.734375  C 26.276041666666664 27.578125  26.07638888888889 27.5  25.833333333333336 27.5  L 23 27.5  L 23 14.166666666666664  C 23.333333333333336 13.92361111111111  23.255208333333336 13.723958333333336  23.098958333333336 13.567708333333336  C 22.942708333333336 13.411458333333336  22.743055555555557 13.333333333333336  22.5 13.333333333333336  L 14.166666666666668 13.333333333333336  C 13.923611111111114 13.333333333333336  13.723958333333332 13.411458333333336  13.567708333333332 13.567708333333336  C 13.411458333333332 13.723958333333336  13.333333333333332 13.92361111111111  13.333333333333332 14.166666666666664  L 13.333333333333332 18.333333333333336  C 13.333333333333332 18.57638888888889  13.411458333333332 18.776041666666664  13.567708333333332 18.932291666666664  C 13.723958333333332 19.088541666666664  13.923611111111114 19.166666666666664  14.166666666666668 19.166666666666664  L 16.666666666666668 19.166666666666664  L 16.666666666666668 27.5  L 14.166666666666668 27.5  C 13.923611111111114 27.5  13.723958333333332 27.578125  13.567708333333332 27.734375  C 13.411458333333332 27.890625  13.333333333333332 28.09027777777778  13.333333333333332 28.33333333333333  L 13.333333333333332 32.5  C 13.333333333333332 32.74305555555556  13.411458333333332 32.942708333333336  13.567708333333332 33.098958333333336  C 13.723958333333332 33.255208333333336  13.923611111111114 33.333333333333336  14.166666666666668 33  L 25.833333333333336 33  C 26.07638888888889 33.333333333333336  26.276041666666664 33.255208333333336  26.432291666666664 33.098958333333336  Z M 23.098958333333336 9.765625  C 23.255208333333336 9.609375  23.333333333333336 9.409722222222218  23.333333333333336 9.166666666666664  L 23.333333333333336 5  C 23.333333333333336 4.756944444444442  23.255208333333336 4.557291666666665  23.098958333333336 4.401041666666665  C 22.942708333333336 4.244791666666665  22.743055555555557 4.166666666666665  22.5 4.166666666666665  L 17.5 4.166666666666665  C 17.256944444444446 4.166666666666665  17.057291666666668 4.244791666666665  16.901041666666668 4.401041666666665  C 16.744791666666668 4.557291666666665  16.666666666666668 4.756944444444442  16.666666666666668 5  L 16.666666666666668 9.166666666666664  C 16.666666666666668 9.409722222222218  16.744791666666668 9.609375  16.901041666666668 9.765625  C 17.057291666666668 9.921875  17.256944444444446 10  17.5 10  L 22.5 10  C 22.743055555555557 10  22.942708333333336 9.921875  23.098958333333336 9.765625  Z M 37.317708333333336 9.9609375  C 39.10590277777777 13.025173611111107  40 16.37152777777777  40 20  C 40 23.62847222222222  39.10590277777777 26.974826388888886  37.317708333333336 30.0390625  C 35.52951388888889 33.103298611111114  33.103298611111114 35.529513888888886  30.0390625 37.317708333333336  C 26.974826388888893 39.10590277777778  23.62847222222222 40  20 40  C 16.37152777777778 40  13.02517361111111 39.10590277777778  9.9609375 37.317708333333336  C 6.896701388888889 35.529513888888886  4.470486111111112 33.103298611111114  2.682291666666667 30.0390625  C 0.8940972222222221 26.974826388888886  0 23.62847222222222  0 20  C 0 16.37152777777777  0.8940972222222221 13.025173611111107  2.682291666666667 9.9609375  C 4.470486111111112 6.896701388888888  6.896701388888889 4.470486111111107  9.9609375 2.682291666666665  C 13.02517361111111 0.8940972222222188  16.37152777777778 0  20 0  C 23.62847222222222 0  26.974826388888893 0.8940972222222188  30.0390625 2.682291666666665  C 33.103298611111114 4.470486111111107  35.52951388888889 6.896701388888888  37.317708333333336 9.9609375  Z " fill-rule="nonzero" fill="#555555" stroke="none" transform="matrix(1 0 0 1 422 88 )" />
  </g>
</svg>