<?xml version="1.0" encoding="utf-8"?>
<svg version="1.1" xmlns:xlink="http://www.w3.org/1999/xlink" width="23px" height="39px" xmlns="http://www.w3.org/2000/svg">
  <g transform="matrix(1 0 0 1 -31 -164 )">
    <path d="M 22.60481099656357 2.344689378757513  C 22.868270332187862 2.605210420841679  23 2.904809619238472  23 3.243486973947897  C 23 3.582164328657313  22.868270332187862 3.8817635270541064  22.60481099656357 4.142284569138276  L 7.073883161512028 19.5  L 22.60481099656357 34.857715430861724  C 22.868270332187862 35.118236472945895  23 35.41783567134268  23 35.756513026052104  C 23 36.09519038076152  22.868270332187862 36.394789579158314  22.60481099656357 36.655310621242485  L 20.628865979381445 38.609218436873746  C 20.36540664375716 38.86973947895792  20.062428407789234 39  19.719931271477662 39  C 19.377434135166098 39  19.07445589919817 38.86973947895792  18.810996563573884 38.609218436873746  L 0.39518900343642616 20.39879759519038  C 0.13172966781214213 20.13827655310621  0 19.838677354709418  0 19.5  C 0 19.16132264529058  0.13172966781214213 18.861723446893787  0.39518900343642616 18.60120240480962  L 18.810996563573884 0.3907815631262529  C 19.07445589919817 0.13026052104208286  19.377434135166098 0  19.719931271477662 0  C 20.062428407789234 0  20.36540664375716 0.13026052104208286  20.628865979381445 0.3907815631262529  L 22.60481099656357 2.344689378757513  Z " fill-rule="nonzero" fill="#333333" stroke="none" transform="matrix(1 0 0 1 31 164 )" />
  </g>
</svg>