<?xml version="1.0" encoding="utf-8"?>
<svg version="1.1" xmlns:xlink="http://www.w3.org/1999/xlink" width="70px" height="70px" xmlns="http://www.w3.org/2000/svg">
  <g transform="matrix(1 0 0 1 -1044 -961 )">
    <path d="M 17.431640625 4.694010416666664  C 22.794053819444446 1.5646701388888828  28.650173611111114 0  35 0  C 41.34982638888889 0  47.205946180555564 1.5646701388888828  52.568359375 4.694010416666664  C 57.93077256944444 7.8233506944444375  62.176649305555564 12.069227430555555  65.30598958333334 17.431640625  C 68.4353298611111 22.794053819444436  70 28.6501736111111  70 35  C 70 41.34982638888889  68.4353298611111 47.20594618055555  65.30598958333334 52.568359375  C 62.176649305555564 57.93077256944444  57.93077256944444 62.17664930555556  52.568359375 65.30598958333334  C 47.205946180555564 68.43532986111111  41.34982638888889 70  35 70  C 28.650173611111114 70  22.794053819444446 68.43532986111111  17.431640625 65.30598958333334  C 12.069227430555557 62.17664930555556  7.8233506944444455 57.93077256944444  4.694010416666667 52.568359375  C 1.5646701388888886 47.20594618055555  0 41.34982638888889  0 35  C 0 28.6501736111111  1.5646701388888886 22.794053819444436  4.694010416666667 17.431640625  C 7.8233506944444455 12.069227430555555  12.069227430555557 7.8233506944444375  17.431640625 4.694010416666664  Z M 27.708333333333332 52.08984375  L 52.5 37.50651041666667  C 53.47222222222223 36.95963541666667  53.958333333333336 36.124131944444436  53.958333333333336 35  C 53.958333333333336 33.87586805555556  53.47222222222223 33.040364583333336  52.5 32.493489583333336  L 27.708333333333332 17.91015625  C 26.766493055555557 17.332899305555554  25.794270833333332 17.317708333333336  24.791666666666668 17.864583333333336  C 23.81944444444445 18.441840277777775  23.333333333333332 19.292534722222218  24 20.416666666666664  L 24 49.58333333333333  C 23.333333333333332 50.707465277777764  23.81944444444445 51.55815972222222  24.791666666666668 52.13541666666667  C 25.277777777777782 52.37847222222222  25.76388888888889 52.5  26.25 52.5  C 26.766493055555557 52.5  27.252604166666668 52.36328125  27.708333333333332 52.08984375  Z " fill-rule="nonzero" fill="#4da9fa" stroke="none" fill-opacity="0.996078431372549" transform="matrix(1 0 0 1 1044 961 )" />
  </g>
</svg>