<?xml version="1.0" encoding="utf-8"?>
<svg version="1.1" xmlns:xlink="http://www.w3.org/1999/xlink" width="40px" height="35px" xmlns="http://www.w3.org/2000/svg">
  <g transform="matrix(1 0 0 1 -332 -710 )">
    <path d="M 38.25 19.50106534090909  C 39.41666666666667 21.232836174242426  40.00000000000001 23.217329545454543  40 25.454545454545457  C 40.00000000000001 28.089488636363633  39.21875000000001 30.339133522727273  37.65625 32.20348011363637  C 36.09375000000001 34.06782670454545  34.208333333333336 35  32 35  L 9.333333333333334 35  C 6.763888888888888 35  4.565972222222222 33.91039299242424  2.7395833333333335 31.731178977272727  C 0.9131944444444444 29.551964962121207  0 26.92945075757576  0 23.863636363636367  C 0 21.676136363636367  0.4930555555555555 19.675071022727273  1.4791666666666667 17.86044034090909  C 2.4652777777777777 16.04580965909091  3.7638888888888893 14.691051136363638  5.375 13.796164772727272  C 5.347222222222222 13.33214962121212  5.333333333333333 12.975852272727272  5.333333333333333 12.727272727272728  C 5.333333333333333 9.214015151515149  6.375 6.2144886363636385  8.458333333333334 3.728693181818183  C 10.541666666666668 1.2428977272727275  13.055555555555557 0  16 0  C 18.194444444444443 0  20.18402777777778 0.7291666666666641  21.96875 2.1875  C 23.753472222222225 3.645833333333328  25.055555555555557 5.551609848484847  25.875 7.904829545454545  C 26.84722222222222 6.877367424242421  28 6.3636363636363615  29.333333333333332 6.3636363636363615  C 30.805555555555557 6.3636363636363615  32.0625 6.9850852272727275  33.10416666666667 8.227982954545455  C 34.145833333333336 9.470880681818183  34.66666666666667 10.970643939393936  34.66666666666667 12.727272727272728  C 34.66666666666667 13.970170454545455  34.38194444444444 15.113636363636362  33.8125 16.157670454545457  C 35.60416666666667 16.654829545454543  37.08333333333334 17.769294507575754  38.25 19.50106534090909  Z " fill-rule="nonzero" fill="#d7d7d7" stroke="none" fill-opacity="0.996078431372549" transform="matrix(1 0 0 1 332 710 )" />
  </g>
</svg>