<?xml version="1.0" encoding="utf-8"?>
<svg version="1.1" xmlns:xlink="http://www.w3.org/1999/xlink" width="18px" height="28px" xmlns="http://www.w3.org/2000/svg">
  <g transform="matrix(1 0 0 1 -80 -121 )">
    <path d="M 18 3.9950372208436713  C 18 4.296112489660875  17.88996138996139 4.5566583953680695  17.66988416988417 4.776674937965261  L 8.444015444015443 14  L 17.66988416988417 23.22332506203474  C 17.88996138996139 23.443341604631925  18 23.703887510339126  18 24.00496277915633  C 18 24.30603804797353  17.88996138996139 24.566583953680727  17.66988416988417 24.786600496277917  L 14.785714285714285 27.669975186104217  C 14.565637065637066 27.889991728701407  14.305019305019306 28  14.003861003861005 28  C 13.702702702702705 28  13.442084942084943 27.889991728701407  13.222007722007723 27.669975186104217  L 0.3301158301158301 14.781637717121587  C 0.11003861003861021 14.561621174524399  0 14.301075268817204  0 14  C 0 13.698924731182796  0.11003861003861021 13.4383788254756  0.3301158301158301 13.218362282878413  L 13.222007722007723 0.33002481389578087  C 13.442084942084943 0.11000827129859259  13.702702702702705 0  14.003861003861005 0  C 14.305019305019306 0  14.565637065637066 0.11000827129859259  14.785714285714285 0.33002481389578087  L 17.66988416988417 3.2133995037220844  C 17.88996138996139 3.4334160463192696  18 3.693961952026464  18 3.9950372208436713  Z " fill-rule="nonzero" fill="#ffffff" stroke="none" transform="matrix(1 0 0 1 80 121 )" />
  </g>
</svg>