<?xml version="1.0" encoding="utf-8"?>
<svg version="1.1" xmlns:xlink="http://www.w3.org/1999/xlink" width="18px" height="31px" xmlns="http://www.w3.org/2000/svg">
  <g transform="matrix(1 0 0 1 -79 -113 )">
    <path d="M 17.690721649484534 1.8637274549098182  C 17.89690721649485 2.0708082832331294  18 2.308951235804939  18 2.5781563126252514  C 18 2.8473613894455565  17.89690721649485 3.0855043420173667  17.690721649484534 3.292585170340681  L 5.536082474226804 15.5  L 17.690721649484534 27.707414829659317  C 17.89690721649485 27.914495657982634  18 28.15263861055444  18 28.42184368737475  C 18 28.691048764195056  17.89690721649485 28.929191716766862  17.690721649484534 29.136272545090183  L 16.144329896907216 30.68937875751503  C 15.93814432989691 30.896459585838343  15.701030927835054 31  15.432989690721648 31  C 15.16494845360825 31  14.927835051546396 30.896459585838343  14.721649484536082 30.68937875751503  L 0.30927835051546393 16.21442885771543  C 0.10309278350515472 16.007348029392116  0 15.769205076820306  0 15.5  C 0 15.23079492317969  0.10309278350515472 14.99265197060788  0.30927835051546393 14.78557114228457  L 14.721649484536082 0.31062124248497025  C 14.927835051546396 0.1035404141616556  15.16494845360825 0  15.432989690721648 0  C 15.701030927835054 0  15.93814432989691 0.1035404141616556  16.144329896907216 0.31062124248497025  L 17.690721649484534 1.8637274549098182  Z " fill-rule="nonzero" fill="#f2f2f2" stroke="none" transform="matrix(1 0 0 1 79 113 )" />
  </g>
</svg>