<?xml version="1.0" encoding="utf-8"?>
<svg version="1.1" xmlns:xlink="http://www.w3.org/1999/xlink" width="60px" height="60px" xmlns="http://www.w3.org/2000/svg">
  <g transform="matrix(1 0 0 1 -303 -403 )">
    <path d="M 49.453125 25.4296875  C 49.921875 24.9609375  50.15625 24.375  50.15625 23.671875  C 50.15625 22.942708333333332  49.921875 22.343750000000004  49.453125 21.875000000000004  L 45.8984375 18.359375000000004  C 45.40364583333334 17.86458333333333  44.81770833333334 17.617187499999996  44.140625 17.617187499999996  C 43.46354166666667 17.617187499999996  42.87760416666667 17.86458333333333  42.3828125 18.359375000000004  L 26.4453125 34.25781250000001  L 17.6171875 25.4296875  C 17.122395833333332 24.934895833333332  16.536458333333332 24.687500000000004  15.859375000000002 24.687500000000004  C 15.182291666666668 24.687500000000004  14.596354166666666 24.934895833333332  14.1015625 25.4296875  L 10.546875 28.9453125  C 10.078125 29.4140625  9.843750000000002 30.01302083333333  9.84375 30.742187500000004  C 9.843750000000002 31.445312500000004  10.078125 32.03125000000001  10.546875 32.50000000000001  L 24.6875 46.640625  C 25.18229166666667 47.13541666666666  25.76822916666667 47.3828125  26.4453125 47.3828125  C 27.1484375 47.3828125  27.747395833333336 47.13541666666666  28.2421875 46.640625  L 49.453125 25.4296875  Z M 55.9765625 14.94140625  C 58.65885416666666 19.53776041666666  60 24.557291666666657  60 30  C 60 35.442708333333336  58.65885416666666 40.46223958333333  55.9765625 45.05859375  C 53.29427083333334 49.654947916666664  49.654947916666664 53.294270833333336  45.05859375 55.9765625  C 40.46223958333334 58.65885416666667  35.442708333333336 60  30 60  C 24.557291666666668 60  19.537760416666668 58.65885416666667  14.94140625 55.9765625  C 10.345052083333334 53.294270833333336  6.705729166666668 49.654947916666664  4.0234375 45.05859375  C 1.341145833333333 40.46223958333333  0 35.442708333333336  0 30  C 0 24.557291666666657  1.341145833333333 19.53776041666666  4.0234375 14.94140625  C 6.705729166666668 10.345052083333332  10.345052083333334 6.705729166666661  14.94140625 4.023437499999998  C 19.537760416666668 1.3411458333333282  24.557291666666668 0  30 0  C 35.442708333333336 0  40.46223958333334 1.3411458333333282  45.05859375 4.023437499999998  C 49.654947916666664 6.705729166666661  53.29427083333334 10.345052083333332  55.9765625 14.94140625  Z " fill-rule="nonzero" fill="#4da9fa" stroke="none" transform="matrix(1 0 0 1 303 403 )" />
  </g>
</svg>