<?xml version="1.0" encoding="utf-8"?>
<svg version="1.1" xmlns:xlink="http://www.w3.org/1999/xlink" width="13px" height="13px" viewBox="87 203  13 13" xmlns="http://www.w3.org/2000/svg">
  <path d="M 93.5 203  C 97.14 203  100 205.86  100 209.5  C 100 213.14  97.14 216  93.5 216  C 89.86 216  87 213.14  87 209.5  C 87 205.86  89.86 203  93.5 203  Z " fill-rule="nonzero" fill="#f0f0f0" stroke="none" />
  <path d="M 93.5 203.5  C 96.86 203.5  99.5 206.14  99.5 209.5  C 99.5 212.86  96.86 215.5  93.5 215.5  C 90.14 215.5  87.5 212.86  87.5 209.5  C 87.5 206.14  90.14 203.5  93.5 203.5  Z " stroke-width="1" stroke="#797979" fill="none" />
  <path d="M 93.5 212.75  C 91.68 212.75  90.25 211.32  90.25 209.5  C 90.25 207.68  91.68 206.25  93.5 206.25  C 95.32 206.25  96.75 207.68  96.75 209.5  C 96.75 211.32  95.32 212.75  93.5 212.75  " fill-rule="nonzero" fill="#797979" stroke="none" />
</svg>