<?xml version="1.0" encoding="utf-8"?>
<svg version="1.1" xmlns:xlink="http://www.w3.org/1999/xlink" width="13px" height="13px" viewBox="87 285  13 13" xmlns="http://www.w3.org/2000/svg">
  <path d="M 93.5 285  C 97.14 285  100 287.86  100 291.5  C 100 295.14  97.14 298  93.5 298  C 89.86 298  87 295.14  87 291.5  C 87 287.86  89.86 285  93.5 285  Z " fill-rule="nonzero" fill="#ffffff" stroke="none" />
  <path d="M 93.5 285.5  C 96.86 285.5  99.5 288.14  99.5 291.5  C 99.5 294.86  96.86 297.5  93.5 297.5  C 90.14 297.5  87.5 294.86  87.5 291.5  C 87.5 288.14  90.14 285.5  93.5 285.5  Z " stroke-width="1" stroke="#797979" fill="none" />
  <path d="M 93.5 294.75  C 91.68 294.75  90.25 293.32  90.25 291.5  C 90.25 289.68  91.68 288.25  93.5 288.25  C 95.32 288.25  96.75 289.68  96.75 291.5  C 96.75 293.32  95.32 294.75  93.5 294.75  " fill-rule="nonzero" fill="#797979" stroke="none" />
</svg>