<?xml version="1.0" encoding="utf-8"?>
<svg version="1.1" xmlns:xlink="http://www.w3.org/1999/xlink" width="13px" height="13px" viewBox="87 307  13 13" xmlns="http://www.w3.org/2000/svg">
  <path d="M 93.5 307  C 97.14 307  100 309.86  100 313.5  C 100 317.14  97.14 320  93.5 320  C 89.86 320  87 317.14  87 313.5  C 87 309.86  89.86 307  93.5 307  Z " fill-rule="nonzero" fill="#ffffff" stroke="none" />
  <path d="M 93.5 307.5  C 96.86 307.5  99.5 310.14  99.5 313.5  C 99.5 316.86  96.86 319.5  93.5 319.5  C 90.14 319.5  87.5 316.86  87.5 313.5  C 87.5 310.14  90.14 307.5  93.5 307.5  Z " stroke-width="1" stroke="#797979" fill="none" />
  <path d="M 93.5 316.75  C 91.68 316.75  90.25 315.32  90.25 313.5  C 90.25 311.68  91.68 310.25  93.5 310.25  C 95.32 310.25  96.75 311.68  96.75 313.5  C 96.75 315.32  95.32 316.75  93.5 316.75  " fill-rule="nonzero" fill="#797979" stroke="none" />
</svg>