<?xml version="1.0" encoding="utf-8"?>
<svg version="1.1" xmlns:xlink="http://www.w3.org/1999/xlink" width="58px" height="58px" xmlns="http://www.w3.org/2000/svg">
  <g transform="matrix(1 0 0 1 -308 -360 )">
    <path d="M 47.842447916666664 30.69921875  C 48.295572916666664 30.24609375  48.522135416666664 29.6796875  48.522135416666664 29  C 48.522135416666664 28.3203125  48.295572916666664 27.75390625  47.842447916666664 27.30078125  L 44.40625 23.864583333333336  L 30.736979166666664 10.1953125  C 30.283854166666664 9.7421875  29.717447916666664 9.515625  29.037760416666664 9.515625  C 28.358072916666668 9.515625  27.791666666666668 9.7421875  27.338541666666668 10.1953125  L 23.90234375 13.631510416666664  C 23.44921875 14.084635416666664  23.22265625 14.651041666666664  23.22265625 15.330729166666664  C 23.22265625 16.010416666666664  23.44921875 16.576822916666664  23.90234375 17.029947916666664  L 31.0390625 25  L 12.083333333333334 25  C 11.428819444444446 24.166666666666664  10.862413194444446 24.405815972222225  10.384114583333334 24.884114583333336  C 9.905815972222223 25.36241319444444  9.666666666666666 25.92881944444444  9.666666666666666 26.583333333333336  L 9.666666666666666 31.41666666666667  C 9.666666666666666 32.07118055555555  9.905815972222223 32.63758680555555  10.384114583333334 33.11588541666667  C 10.862413194444446 33.59418402777778  11.428819444444446 33.83333333333333  12.083333333333334 33  L 31.0390625 33  L 23.90234375 40.97005208333333  C 23.424045138888893 41.448350694444436  23.184895833333332 42.014756944444436  23.184895833333332 42.66927083333333  C 23.184895833333332 43.32378472222222  23.424045138888893 43.890190972222214  23.90234375 44.368489583333336  L 27.338541666666668 47.8046875  C 27.791666666666668 48.2578125  28.358072916666668 48.484375  29.037760416666664 48.484375  C 29.717447916666664 48.484375  30.283854166666664 48.2578125  30.736979166666664 47.8046875  L 44.40625 34.13541666666667  L 47.842447916666664 30.69921875  Z M 54.110677083333336 14.443359375  C 56.70355902777777 18.886501736111107  58 23.73871527777777  58 29  C 58 34.26128472222222  56.70355902777777 39.11349826388888  54.110677083333336 43.556640625  C 51.51779513888889 47.999782986111114  47.999782986111114 51.517795138888886  43.556640625 54.110677083333336  C 39.11349826388889 56.703559027777786  34.26128472222222 58  29 58  C 23.73871527777778 58  18.88650173611111 56.703559027777786  14.443359375 54.110677083333336  C 10.00021701388889 51.517795138888886  6.482204861111112 47.999782986111114  3.889322916666667 43.556640625  C 1.296440972222222 39.11349826388888  0 34.26128472222222  0 29  C 0 23.73871527777777  1.296440972222222 18.886501736111107  3.889322916666667 14.443359375  C 6.482204861111112 10.000217013888888  10.00021701388889 6.482204861111105  14.443359375 3.8893229166666643  C 18.88650173611111 1.2964409722222172  23.73871527777778 0  29 0  C 34.26128472222222 0  39.11349826388889 1.2964409722222172  43.556640625 3.8893229166666643  C 47.999782986111114 6.482204861111105  51.51779513888889 10.000217013888888  54.110677083333336 14.443359375  Z " fill-rule="nonzero" fill="#4da9fa" stroke="none" transform="matrix(1 0 0 1 308 360 )" />
  </g>
</svg>